<svg width="24" height="20" viewBox="0 0 24 20" fill="none" xmlns="http://www.w3.org/2000/svg">
<ellipse cx="19.0882" cy="7.88858" rx="3.69631" ry="2.11218" fill="#FFDC00"/>
<ellipse cx="11.1669" cy="6.83248" rx="6.33654" ry="3.16827" fill="#FFDC00"/>
<path fill-rule="evenodd" clip-rule="evenodd" d="M3.97198 0.0899275C4.12722 0.000301163 4.31004 -0.0226286 4.47988 0.022476L4.60418 0.0690823L11.2297 3.33254L14.1634 1.57511L14.4699 1.4053C16.9487 0.136968 20.0134 1.02259 21.4214 3.46119C21.6067 3.78223 21.4967 4.19274 21.1757 4.3781L19.9782 5.06926L17.2926 5.06925L19.8725 3.57926C18.7167 2.19668 16.7441 1.76481 15.1105 2.58553L14.9082 2.69466L3.89369 9.29263C3.62941 9.45096 3.29127 9.40905 3.07364 9.19098L1.5481 7.6623L1.34057 7.76197L1.34274 11.081C1.34274 12.1931 2.24429 13.0946 3.35641 13.0946C3.75049 13.0946 4.13591 12.979 4.4649 12.7621L7.93378 10.4747C8.31757 10.2217 8.83643 10.4206 8.95269 10.8653L9.00701 11.0733C8.59118 11.5086 8.25212 12.0179 8.01155 12.5795L7.88873 12.1101L5.20361 13.8828C4.73362 14.1927 4.19453 14.3786 3.63649 14.4253L3.35612 14.4371C1.50259 14.4371 0 12.9345 0 11.0809V7.34193C0 7.08477 0.146924 6.85021 0.378304 6.73799L1.39248 6.2461C1.64997 6.12121 1.95834 6.17332 2.1605 6.37588L3.65162 7.87222L9.85871 4.15383L4.33049 1.43152L3.36089 1.99132L6.61452 4.60955C6.87119 4.81619 6.93577 5.17301 6.78368 5.45255L6.71644 5.55332C6.5098 5.80999 6.15298 5.87456 5.87344 5.72247L5.77267 5.65524L1.75793 2.4231C1.42113 2.15196 1.43024 1.64829 1.74873 1.38458L1.84324 1.31896L3.97198 0.0899275ZM13.3386 6.13075C12.5759 6.13075 12.0626 6.745 11.9404 7.36801L11.9403 7.36799L11.9386 7.37772L11.3337 10.7687C10.0663 11.1764 9.26155 12.4962 9.26155 13.9628C9.26155 15.423 10.1114 16.7208 11.3222 17.1425V18.5144C11.3222 19.2562 11.916 19.7164 12.5044 19.7164H13.5894C13.8983 19.7164 14.2257 19.6197 14.4551 19.3596C14.6777 19.1072 14.7361 18.783 14.6873 18.47V17.286H18.5258V18.5144C18.5258 19.2471 19.112 19.7014 19.6929 19.7014H20.7771C21.0654 19.7014 21.3663 19.5917 21.5842 19.3674C21.8043 19.141 21.9138 18.8232 21.8609 18.4721V17.1582C23.1305 16.7522 23.9378 15.4311 23.9378 13.9628C23.9378 12.1801 22.6713 10.6395 21.0276 10.6395H15.0907C14.7731 10.6395 14.5157 10.897 14.5157 11.2145C14.5157 11.5321 14.7731 11.7895 15.0907 11.7895H21.0276C21.8859 11.7895 22.7878 12.6537 22.7878 13.9628C22.7878 15.286 21.9571 16.136 21.0276 16.136H12.1717C11.3134 16.136 10.4115 15.2718 10.4115 13.9628C10.4115 12.6393 11.2415 11.7895 12.1717 11.7895H13.5061C13.8237 11.7895 14.0811 11.5321 14.0811 11.2145C14.0811 10.897 13.8237 10.6395 13.5061 10.6395H12.5249L13.0697 7.5854C13.0909 7.48158 13.1401 7.39856 13.1944 7.34663C13.2466 7.29668 13.2958 7.28075 13.3386 7.28075H20.0388C20.0819 7.28075 20.1316 7.2969 20.184 7.34692C20.2389 7.39942 20.2881 7.48322 20.3081 7.58726L20.3081 7.58727L20.3095 7.59404L20.8107 10.0417C20.8744 10.3528 21.1783 10.5534 21.4894 10.4896C21.8005 10.4259 22.001 10.1221 21.9373 9.81098L21.4367 7.36631C21.3149 6.74106 20.7986 6.13075 20.0388 6.13075H13.3386ZM12.5884 14.0486C12.5884 13.6463 12.9009 13.3462 13.2559 13.3462C13.611 13.3462 13.9235 13.6463 13.9235 14.0486C13.9235 14.4502 13.6107 14.7509 13.2559 14.7509C12.9011 14.7509 12.5884 14.4502 12.5884 14.0486ZM13.2559 12.3462C12.3216 12.3462 11.5884 13.1214 11.5884 14.0486C11.5884 14.9747 12.3214 15.7509 13.2559 15.7509C14.1905 15.7509 14.9235 14.9747 14.9235 14.0486C14.9235 13.1214 14.1902 12.3462 13.2559 12.3462ZM12.3522 17.3117V18.5144C12.3522 18.5867 12.3769 18.6231 12.3993 18.6443C12.4279 18.6712 12.4679 18.6864 12.5044 18.6864H13.5894C13.6313 18.6864 13.6579 18.6816 13.6736 18.6771C13.6739 18.6637 13.6727 18.6429 13.667 18.6135C13.6606 18.5808 13.6573 18.5476 13.6573 18.5144V17.3117H12.3522ZM13.6922 18.6694L13.692 18.6696L13.6907 18.6705L13.6922 18.6694ZM19.5258 17.2967V18.5144C19.5258 18.5908 19.5522 18.6312 19.5776 18.6552C19.609 18.6848 19.6527 18.7014 19.6929 18.7014H20.7771C20.797 18.7014 20.8172 18.6974 20.8348 18.6904C20.8522 18.6834 20.8624 18.6753 20.8672 18.6704C20.8709 18.6665 20.8717 18.6645 20.8722 18.6626C20.8727 18.6609 20.8772 18.6457 20.8703 18.6106C20.864 18.5789 20.8609 18.5467 20.8609 18.5144V17.2967H19.5258ZM20.1094 13.3462C19.7548 13.3462 19.4426 13.6458 19.4426 14.0486C19.4426 14.4507 19.755 14.7509 20.1094 14.7509C20.4642 14.7509 20.777 14.4502 20.777 14.0486C20.777 13.6463 20.4644 13.3462 20.1094 13.3462ZM18.4426 14.0486C18.4426 13.1219 19.1746 12.3462 20.1094 12.3462C21.0437 12.3462 21.777 13.1214 21.777 14.0486C21.777 14.9747 21.0439 15.7509 20.1094 15.7509C19.1744 15.7509 18.4426 14.9742 18.4426 14.0486Z" fill="#5E23DC"/>
</svg>
