<svg width="12" height="17" viewBox="0 0 12 17" fill="none" xmlns="http://www.w3.org/2000/svg">
<circle cx="5.91784" cy="7.53152" r="4.33971" fill="#FFDC00"/>
<path d="M6.31231 12.1356V9.37394H7.23154C8.03376 9.3729 8.80282 9.05376 9.37007 8.48651C9.93732 7.91926 10.2565 7.1502 10.2575 6.34798C10.2575 6.24335 10.2159 6.143 10.142 6.06901C10.068 5.99503 9.96762 5.95346 9.86299 5.95346H8.54924C8.01362 5.95372 7.48769 6.09633 7.02531 6.36668C6.56293 6.63704 6.18071 7.02543 5.91779 7.49209C5.65488 7.02543 5.27266 6.63704 4.81028 6.36668C4.3479 6.09633 3.82197 5.95372 3.28635 5.95346H1.9726C1.86796 5.95346 1.76762 5.99503 1.69363 6.06901C1.61964 6.143 1.57808 6.24335 1.57808 6.34798C1.57912 7.1502 1.89826 7.91926 2.46552 8.48651C3.03277 9.05376 3.80183 9.3729 4.60404 9.37394H5.52327V12.1356C5.52327 12.2402 5.56484 12.3406 5.63882 12.4145C5.71281 12.4885 5.81316 12.5301 5.91779 12.5301C6.02243 12.5301 6.12277 12.4885 6.19676 12.4145C6.27075 12.3406 6.31231 12.2402 6.31231 12.1356ZM8.54924 6.7425H9.43296C9.34041 7.25904 9.0692 7.72661 8.66677 8.06341C8.26434 8.40021 7.75631 8.5848 7.23154 8.58491H6.34782C6.44037 8.06836 6.71158 7.6008 7.11401 7.264C7.51644 6.9272 8.02447 6.7426 8.54924 6.7425ZM4.60404 8.58491C4.07927 8.5848 3.57124 8.40021 3.16881 8.06341C2.76639 7.72661 2.49518 7.25904 2.40262 6.7425H3.28635C3.81112 6.7426 4.31915 6.9272 4.72158 7.264C5.124 7.6008 5.39521 8.06836 5.48777 8.58491H4.60404ZM4.33971 12.2658C4.08716 12.0206 3.76214 11.8635 3.41308 11.818C3.06402 11.7725 2.7096 11.841 2.40262 12.0133V10.3287C2.40158 9.79642 2.18968 9.28626 1.81331 8.90989C1.43695 8.53352 0.926782 8.32162 0.394519 8.32058C0.289886 8.32058 0.189539 8.36214 0.115552 8.43613C0.0415653 8.51012 0 8.61046 0 8.7151V13.3507C0.000262328 13.5341 0.0423231 13.7151 0.122988 13.8798C0.203653 14.0446 0.3208 14.1888 0.465533 14.3015L1.14016 14.8223C1.2872 14.9358 1.40606 15.0817 1.48749 15.2487C1.56892 15.4156 1.61072 15.5991 1.60964 15.7849V16.6055C1.60964 16.7101 1.6512 16.8105 1.72519 16.8845C1.79918 16.9584 1.89953 17 2.00416 17H5.27867C5.3833 17 5.48365 16.9584 5.55764 16.8845C5.63162 16.8105 5.67319 16.7101 5.67319 16.6055V14.0924C5.67284 13.7744 5.5466 13.4694 5.32207 13.2442L4.33971 12.2658ZM4.88415 16.211H2.39868V15.7849C2.39598 15.4791 2.3235 15.178 2.18676 14.9045C2.05001 14.6311 1.85262 14.3924 1.60964 14.2068L0.946847 13.6782C0.897812 13.6388 0.858196 13.5889 0.830893 13.5323C0.80359 13.4756 0.78929 13.4136 0.789039 13.3507V9.17669C1.02968 9.25837 1.23865 9.41344 1.38656 9.62009C1.53447 9.82674 1.61387 10.0746 1.61358 10.3287V12.8891C1.61142 12.9114 1.61142 12.9339 1.61358 12.9562C1.60418 13.0165 1.60891 13.0782 1.62739 13.1364C1.64587 13.1946 1.67761 13.2477 1.7201 13.2915L2.92733 14.4988C2.9642 14.5353 3.00792 14.5642 3.05598 14.5839C3.10405 14.6035 3.15552 14.6135 3.20744 14.6132C3.285 14.6128 3.36074 14.5897 3.42519 14.5465C3.48965 14.5034 3.53997 14.4423 3.56986 14.3707C3.59975 14.2991 3.60788 14.2203 3.59324 14.1442C3.5786 14.068 3.54184 13.9979 3.48755 13.9425L2.5052 12.9522L2.63144 12.822C2.78498 12.6707 2.99188 12.5859 3.20744 12.5859C3.423 12.5859 3.62991 12.6707 3.78344 12.822L4.7658 13.8044C4.80403 13.8419 4.83424 13.8867 4.85459 13.9362C4.87493 13.9857 4.88499 14.0389 4.88415 14.0924V16.211ZM11.4411 8.32058C10.9088 8.32162 10.3986 8.53352 10.0223 8.90989C9.64591 9.28626 9.434 9.79642 9.43296 10.3287V12.0133C9.12763 11.8352 8.77185 11.7633 8.42133 11.809C8.07082 11.8547 7.74534 12.0153 7.49587 12.2658L6.51352 13.2442C6.28898 13.4694 6.16274 13.7744 6.16239 14.0924V16.6055C6.16239 16.7101 6.20396 16.8105 6.27795 16.8845C6.35193 16.9584 6.45228 17 6.55691 17H9.83143C9.93606 17 10.0364 16.9584 10.1104 16.8845C10.1844 16.8105 10.2259 16.7101 10.2259 16.6055V15.7849C10.2249 15.5991 10.2667 15.4156 10.3481 15.2487C10.4295 15.0817 10.5484 14.9358 10.6954 14.8223L11.3701 14.3015C11.5148 14.1888 11.6319 14.0446 11.7126 13.8798C11.7933 13.7151 11.8353 13.5341 11.8356 13.3507V8.7151C11.8356 8.61046 11.794 8.51012 11.72 8.43613C11.646 8.36214 11.5457 8.32058 11.4411 8.32058ZM11.0465 13.3507C11.0464 13.414 11.0317 13.4765 11.0037 13.5332C10.9757 13.59 10.935 13.6396 10.8848 13.6782L10.2141 14.1989C9.97112 14.3845 9.77374 14.6232 9.63699 14.8967C9.50025 15.1701 9.42777 15.4712 9.42507 15.777V16.211H6.9396V14.0924C6.93876 14.0389 6.94881 13.9857 6.96916 13.9362C6.98951 13.8867 7.01972 13.8419 7.05795 13.8044L8.04031 12.822C8.19384 12.6707 8.40074 12.5859 8.61631 12.5859C8.83187 12.5859 9.03877 12.6707 9.1923 12.822L9.31855 12.9522L8.32831 13.9425C8.27402 13.9979 8.23726 14.068 8.22262 14.1442C8.20798 14.2203 8.21611 14.2991 8.246 14.3707C8.27589 14.4423 8.32621 14.5034 8.39066 14.5465C8.45512 14.5897 8.53086 14.6128 8.60841 14.6132C8.66034 14.6135 8.71181 14.6035 8.75987 14.5839C8.80794 14.5642 8.85166 14.5353 8.88852 14.4988L10.0958 13.2915C10.1382 13.2477 10.17 13.1946 10.1885 13.1364C10.207 13.0782 10.2117 13.0165 10.2023 12.9562C10.2044 12.9339 10.2044 12.9114 10.2023 12.8891V10.3287C10.2034 10.0721 10.2856 9.82249 10.4373 9.61555C10.589 9.40861 10.8022 9.25498 11.0465 9.17669V13.3507Z" fill="#5717D7"/>
<path d="M4.08984 2.28671H7.12764" stroke="#5717D7" stroke-width="0.85" stroke-linecap="round" stroke-linejoin="round"/>
<path d="M4.08984 1.03372H7.12764" stroke="#5717D7" stroke-width="0.85" stroke-linecap="round" stroke-linejoin="round"/>
<path d="M4.80661 1.02979C5.56518 1.02979 6.17443 1.64661 6.17443 2.41463C6.17443 3.18264 5.56518 3.79947 4.80661 3.79947H4.08984L6.2163 5.72851" stroke="#5717D7" stroke-width="0.85" stroke-linecap="round" stroke-linejoin="round"/>
</svg>
