<svg width="16" height="16" viewBox="0 0 16 16" fill="none" xmlns="http://www.w3.org/2000/svg">
<circle cx="11.1651" cy="6.65361" r="4.83497" fill="#FFDC00"/>
<path d="M15.3054 15.0049C15.5913 15.0047 15.8233 15.1984 15.8235 15.4377C15.8238 15.6503 15.6409 15.8273 15.3995 15.8642L15.3065 15.8713L0.518116 15.884C0.232262 15.8842 0.00029396 15.6905 2.79123e-07 15.4513C-0.000260771 15.2386 0.182618 15.0616 0.424025 15.0247L0.517053 15.0176L15.3054 15.0049Z" fill="#5E23DC"/>
<path fill-rule="evenodd" clip-rule="evenodd" d="M8.08105 3.97152C8.08105 4.66427 7.88791 5.25806 7.5982 5.75288C7.11536 6.5446 6.53594 7.23735 5.95653 7.9301C5.57025 8.32596 5.28054 8.82078 4.89427 9.21664C4.7977 9.3156 4.60456 9.3156 4.50799 9.21664C3.63887 8.22699 2.76974 7.13838 1.99719 6.04978C1.70748 5.65392 1.51435 5.25806 1.41778 4.76324C1.0315 3.17981 1.80405 1.49741 3.25259 0.804664C4.50799 0.210878 6.05309 0.507771 7.01879 1.49741C7.69477 2.19017 8.08105 3.08084 8.08105 3.97152Z" stroke="#5717D7" stroke-width="0.925" stroke-linecap="round" stroke-linejoin="round"/>
<circle cx="4.69912" cy="3.8811" r="1.35244" stroke="#5717D7" stroke-width="0.925" stroke-linecap="round" stroke-linejoin="round"/>
<path d="M5.09321 15.4445H0.884345C0.710425 15.4445 0.571289 15.314 0.571289 15.1509V12.8028C0.571289 12.7375 0.606073 12.6397 0.675641 12.6071L2.76268 10.6829C2.86703 10.585 3.07574 10.585 3.18009 10.6829L5.30191 12.6071C5.37148 12.6723 5.40626 12.7375 5.40626 12.8028V15.1509C5.37148 15.314 5.26713 15.4445 5.09321 15.4445Z" stroke="#5717D7" stroke-width="0.85"/>
<mask id="path-6-inside-1_2618_32" fill="white">
<rect x="1.89014" y="13.0709" width="2.19771" height="2.63726" rx="0.2"/>
</mask>
<rect x="1.89014" y="13.0709" width="2.19771" height="2.63726" rx="0.2" stroke="#5717D7" stroke-width="1.5" mask="url(#path-6-inside-1_2618_32)"/>
<path d="M14.411 15.2626H7.29946C7.0056 15.2626 6.77051 15.0422 6.77051 14.7666V10.799C6.77051 10.6888 6.82928 10.5235 6.94683 10.4684L10.4732 7.21713C10.6495 7.05181 11.0022 7.05181 11.1785 7.21713L14.7636 10.4684C14.8812 10.5786 14.9399 10.6888 14.9399 10.799V14.7666C14.8812 15.0422 14.7049 15.2626 14.411 15.2626Z" stroke="#5717D7"/>
<mask id="path-8-inside-2_2618_32" fill="white">
<rect x="8.99854" y="11.2521" width="3.71338" height="4.45606" rx="0.2"/>
</mask>
<rect x="8.99854" y="11.2521" width="3.71338" height="4.45606" rx="0.2" stroke="#5717D7" stroke-width="1.7" mask="url(#path-8-inside-2_2618_32)"/>
</svg>
