<svg width="337" height="128" xmlns="http://www.w3.org/2000/svg">
    <defs>
        <linearGradient x1="73.836%" y1="66.763%" x2="34.041%" y2="43.466%" id="a">
            <stop stop-color="#FFF" stop-opacity="0" offset="0%"/>
            <stop stop-color="#A9B1FF" offset="100%"/>
        </linearGradient>
        <linearGradient x1="66.935%" y1="470.562%" x2="66.935%" y2="0%" id="b">
            <stop stop-color="#FFF" stop-opacity="0" offset="0%"/>
            <stop stop-color="#A9B1FF" offset="100%"/>
        </linearGradient>
        <linearGradient x1="100%" y1="50.367%" x2="17.491%" y2="49.786%" id="c">
            <stop stop-color="#FFF" stop-opacity="0" offset="0%"/>
            <stop stop-color="#A9B1FF" offset="100%"/>
        </linearGradient>
    </defs>
    <g fill="none" fill-rule="evenodd">
        <path d="M35.462 122.39c.945-.557-1.618-6.667-1.618-6.667l33.752-7.165 3.343-9.374 23.085-10.575L99.5 68.115l49-14.418 58 18.396 35 50.297H35.462z" fill="url(#a)" fill-rule="nonzero"/>
        <path d="m83.262 93.54 30.329 1.552 14.909 15.695 23.736 11.603H75l8.262-28.85zm91.238 28.85 12.121-25.438 19.651 6.708 8.064 7.655L245 99.184l25 23.206h-95.5zm137.75-12.908 9.848 12.908H300l3.125-9.793 9.125-3.115z" fill="url(#b)" fill-rule="nonzero"/>
        <path d="M283 121.828h17.037c0-4.677-3.814-8.47-8.519-8.47-4.704 0-8.518 3.793-8.518 8.47zM273.257 119.325a2.25 2.25 0 0 0-2.257 2.244h4.515a2.252 2.252 0 0 0-2.258-2.244" fill="#817BFF"/>
        <path d="M277 122.106V95.194c0-.952.863-1.723 1.929-1.723s1.93.77 1.93 1.723v26.912H277z" fill="#BDBAFF"/>
        <path d="M285.067 98.48c-.916.174-1.547 1.025-1.547 1.952v3.387c0 .722-.59 1.308-1.316 1.308H279c-.933 0-1.788.627-1.964 1.538a1.923 1.923 0 0 0 1.893 2.299h4.59c2.13 0 3.859-1.717 3.859-3.837v-4.765a1.928 1.928 0 0 0-2.312-1.883" fill="#BDBAFF"/>
        <path d="M273.859 108.92v-9.444c0-1.04-.782-1.97-1.826-2.025A1.925 1.925 0 0 0 270 99.367v10.86c0 2.12 1.728 3.837 3.859 3.837h6.52v-3.837h-5.205a1.312 1.312 0 0 1-1.315-1.308" fill="#BDBAFF"/>
        <path d="M255.653 122.399V77.37c0-.993.863-1.799 1.93-1.799 1.065 0 1.93.806 1.93 1.8v45.027M248.07 121.62V92.298c0-1 .864-1.81 1.93-1.81 1.066 0 1.93.81 1.93 1.81v29.322" fill="#817BFF"/>
        <path d="M263.72 79.586c-.916.175-1.547 1.025-1.547 1.953v3.387c0 .722-.59 1.308-1.316 1.308h-3.203c-.933 0-1.788.627-1.964 1.538a1.923 1.923 0 0 0 1.893 2.299h4.59c2.13 0 3.859-1.718 3.859-3.837v-4.765a1.928 1.928 0 0 0-2.312-1.883M42.235 123.289c-.774 0-1.4-.59-1.4-1.318V101.4c0-.727.626-1.317 1.4-1.317.774 0 1.401.59 1.401 1.317v20.572c0 .728-.627 1.318-1.4 1.318" fill="#817BFF"/>
        <path fill="url(#c)" fill-rule="nonzero" d="M0 128h337v-5.692H0z"/>
        <path d="M38.903 109.578v-2.692c0-.754-.568-1.43-1.326-1.47a1.398 1.398 0 0 0-1.476 1.391v3.72a2.795 2.795 0 0 0 2.802 2.787h4.733v-2.786h-3.778a.953.953 0 0 1-.955-.95" fill="#817BFF"/>
        <path fill="#C3C9FF" opacity=".5" d="M39 52.844h65.178v-3.197H39zM112.238 3.196h44.34V0h-44.34zM162.618 3.196h12.029V0h-12.029zM215.52 28.02h65.178v-3.196H215.52zM172.492 52.844h65.178v-3.197h-65.178z"/>
    </g>
</svg>
